<?xml version="1.0" encoding="utf-8"?>
<!-- Generator: Adobe Illustrator 25.4.1, SVG Export Plug-In . SVG Version: 6.00 Build 0)  -->
<svg version="1.1" id="Layer_1" xmlns="http://www.w3.org/2000/svg" xmlns:xlink="http://www.w3.org/1999/xlink" x="0px" y="0px"
	 viewBox="0 0 233.3 233.3" style="enable-background:new 0 0 233.3 233.3;" xml:space="preserve">
<style type="text/css">
	.st0{fill:none;}
	.st1{fill:#EABE7C;}
</style>
<g id="Layer_2_00000170276105945334718810000006446914931815890366_">
	<g id="Layer_1-2">
		<rect class="st0" width="233.3" height="233.3"/>
		<g id="ceWeeC.tif">
			<path class="st1" d="M44.9,116.5V61.6c0-10.2,6.4-16.7,16.7-16.7c36.7,0,73.3,0,110,0c10.4,0,16.8,6.4,16.8,16.8v109.8
				c0,10.4-6.4,16.8-16.8,16.8H61.8c-10.5,0-16.9-6.4-16.9-16.9V116.5z M65.4,65.4v81.9h102.3V65.4H65.4z"/>
			<path class="st1" d="M103.8,113.8c0.6-0.9,1.1-1.5,1.5-2.2c5-7.5,10-15,15-22.6c2.8-4.2,6.9-4.2,9.7,0c8.7,13,17.3,26.1,26,39.1
				c1.3,2,2.2,4.1,0.9,6.4s-3.4,2.6-5.7,2.6c-23.1,0-46.1,0-69.2,0c-2.3,0-4.4-0.3-5.6-2.7s-0.5-4.3,1-6.3
				c4.7-6.3,9.3-12.6,13.9-18.9c2.8-3.7,6.2-3.7,9,0.1L103.8,113.8z"/>
			<path class="st1" d="M75.7,85.7c-0.1-5.4,4.3-9.9,9.7-10c0.2,0,0.3,0,0.5,0c6,0,10.2,4.4,10.2,10.5c-0.1,5.6-4.8,10.1-10.4,10
				C80,96,75.5,91.3,75.7,85.7L75.7,85.7z"/>
		</g>
	</g>
</g>
</svg>
