<?xml version="1.0" encoding="utf-8"?>
<!-- Generator: Adobe Illustrator 25.4.1, SVG Export Plug-In . SVG Version: 6.00 Build 0)  -->
<svg version="1.1" id="Layer_1" xmlns="http://www.w3.org/2000/svg" xmlns:xlink="http://www.w3.org/1999/xlink" x="0px" y="0px"
	 viewBox="0 0 233.3 233.3" style="enable-background:new 0 0 233.3 233.3;" xml:space="preserve">
<style type="text/css">
	.st0{fill:none;}
	.st1{fill:#EABE7C;}
</style>
<g id="Layer_2_00000096042494192135880210000016260527017994529204_">
	<g id="Layer_1-2">
		<rect class="st0" width="233.3" height="233.3"/>
		<g id="TaPpSR.tif">
			<path class="st1" d="M116.4,49.4c16.7,0.4,32.4,4.4,46.6,13.3c13.2,8.3,23.2,19.2,27.8,34.4c5.9,19.8,0.8,37.1-12.8,52.2
				c-12.4,13.7-28.2,21-46.2,23.8c-14.7,2.5-29.9,1.4-44.1-3.2c-2.2-0.9-4.7-0.5-6.6,1c-9.1,6.4-18.9,11.2-30.2,12.5
				c-2.7,0.3-5.4,0.5-8.2,0.6c-1,0-1.9-0.5-2.5-1.4c-0.2-1,0-2,0.6-2.8c6.3-7.8,11.9-16,15.2-25.7c0.8-1.6,0.4-3.6-1-4.8
				c-10.2-10.9-15.6-23.9-15.2-39c0.4-14.2,6.2-26.3,16-36.5c12.1-12.8,27.2-19.9,44.4-22.7C105.7,50.3,111.1,49.9,116.4,49.4z
				 M116.4,146c5.2,0,10.4-0.9,15.3-2.8c6.3-2.4,12-6.4,16.4-11.6c4.1-4.8,1.8-11-4.4-12.1c-3-0.5-5.1,1-7.1,2.9
				c-7.4,7.6-16.4,10.4-26.8,8.1c-5.6-1.2-10.1-4.4-14-8.4s-10.2-3.3-12.4,1.9c-1.3,3-0.3,5.6,1.8,7.9
				C92.9,140.9,104.4,146.1,116.4,146z M97,83.4c-5.2,0.1-9.5,4.2-9.8,9.4c-0.1,5.5,4,9.5,9.7,9.5s9.5-3.8,9.5-9.8
				C106.3,87.5,102.1,83.5,97,83.4z M135.4,102.4c5.2,0,9.5-4.3,9.4-9.6c0-5.2-4.3-9.5-9.6-9.4c-5.2,0.2-9.4,4.4-9.6,9.6
				C125.7,98.7,129.6,102.4,135.4,102.4L135.4,102.4z"/>
		</g>
	</g>
</g>
</svg>
