<?xml version="1.0" encoding="utf-8"?>
<!-- Generator: Adobe Illustrator 25.4.1, SVG Export Plug-In . SVG Version: 6.00 Build 0)  -->
<svg version="1.1" id="Layer_1" xmlns="http://www.w3.org/2000/svg" xmlns:xlink="http://www.w3.org/1999/xlink" x="0px" y="0px"
	 viewBox="0 0 233.3 233.3" style="enable-background:new 0 0 233.3 233.3;" xml:space="preserve">
<style type="text/css">
	.st0{fill:#EABE7C;}
	.st1{fill:none;}
</style>
<g id="Layer_2_00000047050507170883920390000008522139929014753701_">
	<g id="Layer_1-2">
		<g id="_7Ycbhs.tif">
			<path class="st0" d="M81.4,124.4h-1.9c-8.2,0-16.5,0-24.7,0c-5,0-8.7-3.6-8.4-8.3c0.1-2.5,1.5-4.2,3.2-5.8
				c6.9-6,13.8-12,20.7-18.1c13.6-11.9,27.2-23.8,40.8-35.7c4-3.5,9.2-2.9,12,1.4c1.6,2.5,1.4,5,0.3,7.6c-3.1,7.3-6.3,14.7-9.4,22.1
				c-2.8,6.5-5.5,13-8.3,19.6c-0.2,0.5-0.4,1-0.7,1.7h1.9c8.1,0,16.2,0,24.4,0c4.8,0,7.7,2.5,8.4,7.3c0.4,2.7-0.8,4.8-2.8,6.6
				c-4.4,3.9-8.8,7.7-13.2,11.6c-16.2,14.1-32.3,28.3-48.5,42.4c-4,3.5-9.2,2.9-12-1.3c-1.6-2.4-1.5-5-0.3-7.6
				c3.1-7.2,6.2-14.5,9.3-21.8l8.5-19.8C81,125.7,81.2,125.1,81.4,124.4z"/>
			<path class="st0" d="M186.9,171c-0.3,3.4-2.5,6.6-5.4,7.5c-3.4,1-7-0.2-9.1-3.1c-0.2-0.2-0.3-0.4-0.4-0.7
				c-0.8-3.5-3.3-3.8-6.4-3.7c-5.2,0.2-10.4,0.1-15.6,0c-0.9-0.1-1.8,0.4-2.1,1.3c-0.5,1.2-1.2,2.4-2,3.5c-2.5,3-7,3.8-9.9,1.9
				c-3.4-2.1-4.7-6.4-3-10.1c0.5-1.2,1.1-2.3,1.7-3.5c5.8-11.5,11.5-23,17.2-34.5c1.6-3.1,3.9-5.2,7.4-5.2s6,2,7.6,5.2
				c6.1,12.4,12.4,24.8,18.5,37.2C186,168.2,186.5,169.6,186.9,171z M155.5,157.5h7.9l-3.9-7.8C158,152.5,156.8,154.9,155.5,157.5
				L155.5,157.5z"/>
		</g>
		<rect class="st1" width="233.3" height="233.3"/>
	</g>
</g>
</svg>
