<?xml version="1.0" encoding="utf-8"?>
<!-- Generator: Adobe Illustrator 25.4.1, SVG Export Plug-In . SVG Version: 6.00 Build 0)  -->
<svg version="1.1" id="Layer_1" xmlns="http://www.w3.org/2000/svg" xmlns:xlink="http://www.w3.org/1999/xlink" x="0px" y="0px"
	 viewBox="0 0 233.3 233.3" style="enable-background:new 0 0 233.3 233.3;" xml:space="preserve">
<style type="text/css">
	.st0{fill:none;}
	.st1{fill:#EABE7C;}
</style>
<g id="Layer_2_00000109007439718613210880000016516240981165591709_">
	<g id="Layer_1-2">
		<rect class="st0" width="233.3" height="233.3"/>
		<path class="st1" d="M168.7,54.2c-17.5,0-35.1,0-52.7,0c-17.8,0-35.6,0-53.4,0c-9.1,0-17.4,8.3-17.4,17.4c0,29.5,0,59,0,88.6
			c0,11.2,7.7,18.9,18.9,18.9c35,0,70,0,105,0c1.7,0,3.5-0.2,5.2-0.6c8.3-2,13.8-9,13.8-17.8c0-29,0-58,0-87.1
			C188,61.8,180.5,54.2,168.7,54.2z M95.3,69.2c2.9,0,5.3,2.4,5.3,5.3s-2.4,5.3-5.3,5.3c-2.9,0-5.3-2.4-5.3-5.3c0,0,0,0,0,0
			C89.9,71.6,92.3,69.3,95.3,69.2z M79.9,69.2c2.9,0,5.3,2.4,5.3,5.3s-2.4,5.3-5.3,5.3s-5.3-2.4-5.3-5.3v0
			C74.5,71.6,76.9,69.3,79.9,69.2C79.8,69.2,79.8,69.2,79.9,69.2z M63.9,69.2c2.9,0,5.3,2.4,5.3,5.3c0,2.9-2.4,5.3-5.3,5.3
			c-2.9,0-5.3-2.4-5.3-5.3c0,0,0,0,0,0C58.5,71.6,60.9,69.3,63.9,69.2C63.8,69.2,63.8,69.2,63.9,69.2z M174.7,91.8v68.6
			c0,3.7-1.6,5.3-5.3,5.3c-35.2,0-70.3,0-105.5,0c-3.8,0-5.4-1.6-5.4-5.4V89.9h116.2V91.8z"/>
	</g>
</g>
</svg>
